<svg xmlns="http://www.w3.org/2000/svg" viewBox="0 0 505.03 83.88"><defs><style>.cls-1{fill:#e30917;}</style></defs><title>logovermelha</title><g id="Camada_2" data-name="Camada 2"><g id="Layer_1" data-name="Layer 1"><g id="_Grupo_" data-name="&lt;Grupo&gt;"><g id="_Grupo_2" data-name="&lt;Grupo&gt;"><path id="_Caminho_composto_" data-name="&lt;Caminho composto&gt;" class="cls-1" d="M168.39,33.29c8.32,0,12.48-8.86,12.48-16.16,0-5.4-2.38-10-8.59-10-8.7,0-12.65,8.81-12.65,16.21,0,5.3,2.59,9.94,8.75,9.94M172.23,0c10.43,0,17.13,5.73,17.13,16.53,0,12.7-7.56,23.89-21.07,23.89-10.81,0-17.13-6.22-17.13-17.08C151.15,10.86,159.21,0,172.23,0"/></g><g id="_Grupo_3" data-name="&lt;Grupo&gt;"><path id="_Caminho_" data-name="&lt;Caminho&gt;" class="cls-1" d="M210.62,24.53,201.38.92h8.7l5.78,16.43L226.3,3A5.19,5.19,0,0,1,230.49.92h7.36L219,24.91l-3,14.59H213.9a5.19,5.19,0,0,1-5.08-6.23Z"/></g><g id="_Grupo_4" data-name="&lt;Grupo&gt;"><path id="_Caminho_composto_2" data-name="&lt;Caminho composto&gt;" class="cls-1" d="M259.22,33.29c8.32,0,12.48-8.86,12.48-16.16,0-5.4-2.38-10-8.59-10-8.7,0-12.65,8.81-12.65,16.21,0,5.3,2.59,9.94,8.75,9.94M263.06,0c10.43,0,17.13,5.73,17.13,16.53,0,12.7-7.57,23.89-21.08,23.89-10.81,0-17.13-6.22-17.13-17.08C242,10.86,250,0,263.06,0"/></g><g id="_Grupo_5" data-name="&lt;Grupo&gt;"><path id="_Caminho_composto_3" data-name="&lt;Caminho composto&gt;" class="cls-1" d="M301.51,19.07h8.65c4.27,0,7-2.16,7-6.75,0-3.89-3-4.81-6-4.81h-7.24ZM296.75.92h15.45c7.78.06,13.4,2.7,13.4,11.24s-7,13.51-15,13.51H300.1L297.18,39.5h-2.1A5.19,5.19,0,0,1,290,33.25Z"/></g><g id="_Grupo_6" data-name="&lt;Grupo&gt;"><path id="_Caminho_2" data-name="&lt;Caminho&gt;" class="cls-1" d="M339.73.92h23.1a5.19,5.19,0,0,1,5.08,6.23l-.19.91h-21L345,16.32h15.33a3.3,3.3,0,1,1,0,6.59H343.63l-2,9.46h21.29l-.64,3a5.19,5.19,0,0,1-5.08,4.11H338a5.19,5.19,0,0,1-5.08-6.25Z"/></g><g id="_Grupo_7" data-name="&lt;Grupo&gt;"><path id="_Caminho_3" data-name="&lt;Caminho&gt;" class="cls-1" d="M409.07,14.32a5,5,0,0,1-4.76-3.14c-1-2.69-3.37-4.05-6.4-4.05-8.7,0-12.65,8.81-12.65,16.21,0,5.3,2.59,9.94,8.75,9.94a9.26,9.26,0,0,0,8.06-4.87,5.29,5.29,0,0,1,4.6-2.8h4.9c-3.46,10.75-9.3,14.81-17.67,14.81h-.11l-1.41,1.94h.11a4.45,4.45,0,0,1,1.84-.27c2.43,0,5,1.14,5,3.78,0,4.22-3.13,5.41-6.32,5.41a16.36,16.36,0,0,1-4.73-.55,1.83,1.83,0,0,1-1.16-2.49l.33-.74a11.49,11.49,0,0,0,4.77,1,2,2,0,0,0,1.92-2c-.09-1.19-1-1.53-2.15-1.53a6.72,6.72,0,0,0-2.16.38L388.66,44l2.65-3.78c-9.24-.86-14.54-6.92-14.54-16.86C376.77,10.86,384.83,0,397.85,0c8.92,0,15.67,4.92,15.45,14.32Z"/></g><g id="_Grupo_8" data-name="&lt;Grupo&gt;"><path id="_Caminho_composto_4" data-name="&lt;Caminho composto&gt;" class="cls-1" d="M434.73,24.59H445L443.16,9.24H443ZM440.35.92h4.31a5.19,5.19,0,0,1,5.12,4.33l5.71,34.25h-3.94a5.19,5.19,0,0,1-5.13-4.44l-.6-4.15H431.38l-4.86,8.59h-9Z"/></g><g id="_Grupo_9" data-name="&lt;Grupo&gt;"><path id="_Caminho_4" data-name="&lt;Caminho&gt;" class="cls-1" d="M469.65,26.69a5.27,5.27,0,0,1,4.79,3.42c1.16,2.77,4.17,3.72,7.82,3.72,3.41,0,7.35-1.62,7.35-5.46s-5-4.54-9.78-6-9.73-3.73-9.73-10.37c0-8.59,7.83-12,15.29-12,7.89,0,14.48,3.51,14.48,12.43h-4a5.4,5.4,0,0,1-4.68-3c-1.08-2-3.49-2.79-6.31-2.79-3.24,0-6.75,1.24-6.75,4.81,0,3.84,6.54,4.81,9.19,5.46,6.05,1.57,10.32,3.89,10.32,10.81,0,9.24-8.38,12.75-15.73,12.75-10.65,0-16-4.43-16-13.73Z"/></g><g id="_Grupo_10" data-name="&lt;Grupo&gt;"><path id="_Caminho_5" data-name="&lt;Caminho&gt;" class="cls-1" d="M414.58,50.55h0a4.76,4.76,0,0,0-4.11,2.31l-2.37,3.26,88.43-.1c2.33,0,4,0,5.15-1.24l.14-.16,3.21-4.2Z"/></g><g id="_Grupo_11" data-name="&lt;Grupo&gt;"><g id="_Grupo_12" data-name="&lt;Grupo&gt;"><g id="_Grupo_13" data-name="&lt;Grupo&gt;"><path id="_Caminho_6" data-name="&lt;Caminho&gt;" class="cls-1" d="M124.27,8.05h-12.1l1.21-5.68A1.83,1.83,0,0,1,115.17.92h24.32a5.19,5.19,0,0,1,5.08,6.26l-.18.87H132.81L126.22,39.5h-2.15A5.19,5.19,0,0,1,119,33.25Z"/></g></g><g id="_Grupo_14" data-name="&lt;Grupo&gt;"><path id="_Caminho_7" data-name="&lt;Caminho&gt;" class="cls-1" d="M367.49,50.38H8.29a2.68,2.68,0,0,1-2.09-1,2.64,2.64,0,0,1-.54-2.23l1-4.55L9.42,32.4l0-.14a6.61,6.61,0,0,1,6.42-5.17H25a8,8,0,0,0,5.74-2.56l1.55-1.67c5.92-6.13,17.53-16.23,24-16.23H86a1.91,1.91,0,0,1,1.63.91,2,2,0,0,1,.18,1.63L85,18.48l-.07.27a9.11,9.11,0,0,0,1.67,7.38,6.28,6.28,0,0,0,4.83,2.34h12.36a4.12,4.12,0,0,0,4-3.32l.45-2.28H91.46a.69.69,0,0,1-.51-.31,3.56,3.56,0,0,1-.51-2.63l2.75-9.24A7.46,7.46,0,0,0,91.9,3.92,7.72,7.72,0,0,0,85.79,1H56.27C45.36,1,29.41,17.72,26.85,20.51c-.94.9-1.37,1-1.83,1H15.88A12.24,12.24,0,0,0,4,31L1.19,41.2.18,46h0A8.28,8.28,0,0,0,8.29,56H369.7a3.64,3.64,0,0,0,3.53-2l2.31-3.6Z"/></g></g><g id="_Grupo_15" data-name="&lt;Grupo&gt;"><path id="_Caminho_8" data-name="&lt;Caminho&gt;" class="cls-1" d="M113.25,2.94"/></g><g id="_Grupo_16" data-name="&lt;Grupo&gt;"><path id="_Caminho_composto_5" data-name="&lt;Caminho composto&gt;" class="cls-1" d="M5.27,72.39H8.76c1.7,0,2.64.83,2.64,2.45,0,1.11-.78,2.8-3.4,2.8H5.37L4.6,81.27H3.42Zm.31,4.25H8.25a1.75,1.75,0,0,0,2-1.8,1.31,1.31,0,0,0-1.46-1.46H6.26Z"/><path id="_Caminho_composto_6" data-name="&lt;Caminho composto&gt;" class="cls-1" d="M15.94,72.39h6.12l-.2,1H16.92l-.6,2.82h4.6l-.2,1H16.12l-.65,3.07h5l-.22,1H14.06Z"/><path id="_Caminho_composto_7" data-name="&lt;Caminho composto&gt;" class="cls-1" d="M31.71,75.25a2,2,0,0,0-2.2-2.08c-2.48,0-3.69,2.28-3.69,4.41,0,1.72.85,2.9,2.62,2.9a2.71,2.71,0,0,0,2.75-2.21h1.18a3.74,3.74,0,0,1-3.93,3.21h-.06l-.4.45h0a1.25,1.25,0,0,1,.32,0c.57,0,1.13.26,1.13.92s-.81,1.08-1.48,1.08a3,3,0,0,1-1.22-.27l.22-.53a2.55,2.55,0,0,0,.8.19c.39,0,.75,0,.75-.37s-.3-.39-.57-.39a1.26,1.26,0,0,0-.52.1l-.24-.37.66-.8c-2.06-.2-3.22-1.6-3.22-3.84,0-2.87,1.84-5.41,4.88-5.41,1.92,0,3.38,1,3.38,3.07Z"/><path id="_Caminho_composto_8" data-name="&lt;Caminho composto&gt;" class="cls-1" d="M40.39,72.39h1.29l1.6,8.88H42.07l-.41-2.67H37.92l-1.55,2.67H35ZM38.45,77.6h3.06l-.66-4.17h0Z"/><path id="_Caminho_composto_9" data-name="&lt;Caminho composto&gt;" class="cls-1" d="M53.07,75c0-1.41-.82-1.84-2-1.84-.87,0-2.05.4-2.05,1.45,0,.86.63,1.21,1.44,1.43l1.19.32c1.11.3,2.14.81,2.14,2.4,0,1.83-1.85,2.7-3.46,2.7-2.14,0-3.64-.95-3.49-3.12H48c-.07,1.6.92,2.13,2.36,2.13,1.11,0,2.23-.51,2.23-1.7,0-.91-.71-1.23-1.58-1.47L49.78,77a2.31,2.31,0,0,1-2-2.24c0-1.72,1.65-2.57,3.23-2.57,1.75,0,3.28.86,3.22,2.84Z"/><path id="_Caminho_composto_10" data-name="&lt;Caminho composto&gt;" class="cls-1" d="M68.65,72.18a3.65,3.65,0,0,1,3.71,3.93c0,2.79-1.82,5.37-4.78,5.37-2.43,0-3.81-1.44-3.81-3.89C63.77,74.72,65.61,72.18,68.65,72.18Zm-1.07,8.31c2.35,0,3.59-2.26,3.59-4.38,0-1.64-.88-2.93-2.52-2.93-2.48,0-3.69,2.28-3.69,4.41C65,79.31,65.8,80.49,67.58,80.49Z"/><path id="_Caminho_composto_11" data-name="&lt;Caminho composto&gt;" class="cls-1" d="M77.29,72.39h3.42c1.5,0,2.92.51,2.92,2.26a2.38,2.38,0,0,1-2,2.39v0c.77.24,1,1,.91,1.93s-.35,1.57,0,2.28H81.32a4.16,4.16,0,0,1,0-1.9c.37-2.11-.82-1.89-1.33-1.89H77.39l-.8,3.79H75.41Zm.31,4.09h2.66c1.87,0,2.19-1.12,2.19-1.75,0-1.11-.86-1.34-1.74-1.34H78.26Z"/><path id="_Caminho_composto_12" data-name="&lt;Caminho composto&gt;" class="cls-1" d="M88.39,72.39h1.18L87.7,81.27H86.52Z"/><path id="_Caminho_composto_13" data-name="&lt;Caminho composto&gt;" class="cls-1" d="M99.17,80.39a3.58,3.58,0,0,1-2.65,1.09c-2.43,0-3.81-1.44-3.81-3.89,0-2.87,1.84-5.41,4.88-5.41,2,0,3.57.92,3.57,3H100c0-1.36-1.09-2-2.39-2-2.48,0-3.69,2.28-3.69,4.41,0,1.72.85,2.9,2.62,2.9s2.79-1.18,3.21-2.9H96.89l.2-1H101l-1,4.68h-.75Z"/><path id="_Caminho_composto_14" data-name="&lt;Caminho composto&gt;" class="cls-1" d="M106.22,72.39h1.18l-1.87,8.88h-1.18Z"/><path id="_Caminho_composto_15" data-name="&lt;Caminho composto&gt;" class="cls-1" d="M112,72.39h1.27l3.17,7.35h0L118,72.39h1.14l-1.88,8.88H116L112.84,74h0l-1.5,7.3h-1.14Z"/><path id="_Caminho_composto_16" data-name="&lt;Caminho composto&gt;" class="cls-1" d="M126.31,72.39h1.29l1.6,8.88H128l-.41-2.67h-3.74l-1.55,2.67H121Zm-1.94,5.21h3.06l-.66-4.17h0Z"/><path id="_Caminho_composto_17" data-name="&lt;Caminho composto&gt;" class="cls-1" d="M134.48,72.39h1.18l-1.87,8.88h-1.18Z"/><path id="_Caminho_composto_18" data-name="&lt;Caminho composto&gt;" class="cls-1" d="M144.79,75c0-1.41-.82-1.84-2-1.84-.87,0-2.05.4-2.05,1.45,0,.86.63,1.21,1.44,1.43l1.19.32c1.11.3,2.14.81,2.14,2.4,0,1.83-1.85,2.7-3.46,2.7-2.14,0-3.64-.95-3.49-3.12h1.18c-.07,1.6.92,2.13,2.36,2.13,1.11,0,2.23-.51,2.23-1.7,0-.91-.71-1.23-1.58-1.47L141.5,77a2.31,2.31,0,0,1-2-2.24c0-1.72,1.65-2.57,3.23-2.57,1.75,0,3.28.86,3.22,2.84Z"/><path id="_Caminho_composto_19" data-name="&lt;Caminho composto&gt;" class="cls-1" d="M149.46,79.89h1.38c-.32,1.39-.32,3.06-2.06,3.21l.12-.6c.66-.1.81-.67,1-1.23h-.7Z"/><path id="_Caminho_composto_20" data-name="&lt;Caminho composto&gt;" class="cls-1" d="M167.52,75c0-1.41-.82-1.84-2-1.84-.87,0-2.05.4-2.05,1.45,0,.86.63,1.21,1.44,1.43l1.19.32c1.11.3,2.14.81,2.14,2.4,0,1.83-1.85,2.7-3.46,2.7-2.14,0-3.64-.95-3.49-3.12h1.18c-.07,1.6.92,2.13,2.36,2.13,1.11,0,2.23-.51,2.23-1.7,0-.91-.71-1.23-1.58-1.47L164.24,77a2.31,2.31,0,0,1-2-2.24c0-1.72,1.65-2.57,3.23-2.57,1.75,0,3.28.86,3.22,2.84Z"/><path id="_Caminho_composto_21" data-name="&lt;Caminho composto&gt;" class="cls-1" d="M173.67,72.39h1.18L173,81.27H171.8Z"/><path id="_Caminho_composto_22" data-name="&lt;Caminho composto&gt;" class="cls-1" d="M179.48,72.39h1.64L182.3,80h0l4.39-7.64h1.64l-1.88,8.88h-1.13l1.82-7.77h0l-4.53,7.77h-1.13l-1.16-7.77h0l-1.55,7.77h-1.13Z"/><path id="_Caminho_composto_23" data-name="&lt;Caminho composto&gt;" class="cls-1" d="M192.88,72.39h1.18l-1.87,8.88H191Z"/><path id="_Caminho_composto_24" data-name="&lt;Caminho composto&gt;" class="cls-1" d="M198.69,72.39h1.18l-1.64,7.89h4.69l-.21,1h-5.88Z"/><path id="_Caminho_composto_25" data-name="&lt;Caminho composto&gt;" class="cls-1" d="M210.9,72.39h1.29l1.6,8.88h-1.22l-.41-2.67h-3.74l-1.55,2.67h-1.32ZM209,77.6H212l-.66-4.17h0Z"/><path id="_Caminho_composto_26" data-name="&lt;Caminho composto&gt;" class="cls-1" d="M219.09,72.39h3.42c1.5,0,2.92.51,2.92,2.26a2.38,2.38,0,0,1-2,2.39v0c.77.24,1,1,.91,1.93s-.35,1.57,0,2.28h-1.23a4.16,4.16,0,0,1,0-1.9c.37-2.11-.82-1.89-1.33-1.89h-2.62l-.8,3.79h-1.18Zm.31,4.09h2.66c1.87,0,2.19-1.12,2.19-1.75,0-1.11-.86-1.34-1.74-1.34h-2.45Z"/><path id="_Caminho_composto_27" data-name="&lt;Caminho composto&gt;" class="cls-1" d="M230.19,72.39h6.12l-.2,1h-4.94l-.6,2.82h4.6l-.2,1h-4.61l-.65,3.07h5l-.22,1h-6.18Z"/><path id="_Caminho_composto_28" data-name="&lt;Caminho composto&gt;" class="cls-1" d="M244.87,75c0-1.41-.82-1.84-2-1.84-.87,0-2.05.4-2.05,1.45,0,.86.63,1.21,1.44,1.43l1.19.32c1.11.3,2.14.81,2.14,2.4,0,1.83-1.85,2.7-3.46,2.7-2.14,0-3.64-.95-3.49-3.12h1.18c-.07,1.6.92,2.13,2.36,2.13,1.11,0,2.23-.51,2.23-1.7,0-.91-.71-1.23-1.58-1.47L241.59,77a2.31,2.31,0,0,1-2-2.24c0-1.72,1.65-2.57,3.23-2.57,1.75,0,3.28.86,3.22,2.84Z"/><path id="_Caminho_composto_29" data-name="&lt;Caminho composto&gt;" class="cls-1" d="M257.07,72.39h6.12l-.2,1h-4.94l-.6,2.82h4.6l-.2,1h-4.61l-.65,3.07h5l-.22,1h-6.18Z"/><path id="_Caminho_composto_30" data-name="&lt;Caminho composto&gt;" class="cls-1" d="M277.79,75c0-1.41-.82-1.84-2-1.84-.87,0-2.05.4-2.05,1.45,0,.86.63,1.21,1.44,1.43l1.19.32c1.11.3,2.14.81,2.14,2.4,0,1.83-1.85,2.7-3.46,2.7-2.14,0-3.64-.95-3.49-3.12h1.18c-.07,1.6.92,2.13,2.36,2.13,1.11,0,2.23-.51,2.23-1.7,0-.91-.71-1.23-1.58-1.47L274.51,77a2.31,2.31,0,0,1-2-2.24c0-1.72,1.65-2.57,3.23-2.57,1.75,0,3.28.86,3.22,2.84Z"/><path id="_Caminho_composto_31" data-name="&lt;Caminho composto&gt;" class="cls-1" d="M283.95,72.39h6.12l-.2,1h-4.94l-.6,2.82h4.6l-.2,1h-4.61l-.65,3.07h5l-.22,1h-6.18Z"/><path id="_Caminho_composto_32" data-name="&lt;Caminho composto&gt;" class="cls-1" d="M294.13,72.39h3.42c1.5,0,2.92.51,2.92,2.26a2.38,2.38,0,0,1-2,2.39v0c.77.24,1,1,.91,1.93s-.35,1.57,0,2.28h-1.23a4.16,4.16,0,0,1,0-1.9c.37-2.11-.82-1.89-1.33-1.89h-2.62l-.8,3.79h-1.18Zm.31,4.09h2.66c1.87,0,2.19-1.12,2.19-1.75,0-1.11-.86-1.34-1.74-1.34H295.1Z"/><path id="_Caminho_composto_33" data-name="&lt;Caminho composto&gt;" class="cls-1" d="M306.86,81.27h-1.33l-1.27-8.88h1.21l.91,7.72h0l4.22-7.72h1.26Z"/><path id="_Caminho_composto_34" data-name="&lt;Caminho composto&gt;" class="cls-1" d="M315.41,72.39h1.18l-1.87,8.88h-1.18Z"/><path id="_Caminho_composto_35" data-name="&lt;Caminho composto&gt;" class="cls-1" d="M326.82,75.25a2,2,0,0,0-2.2-2.08c-2.48,0-3.69,2.28-3.69,4.41,0,1.72.85,2.9,2.62,2.9a2.71,2.71,0,0,0,2.75-2.21h1.18a3.74,3.74,0,0,1-3.93,3.21h-.06l-.4.45h0a1.24,1.24,0,0,1,.32,0c.57,0,1.13.26,1.13.92s-.81,1.08-1.48,1.08a3,3,0,0,1-1.22-.27l.22-.53a2.55,2.55,0,0,0,.8.19c.39,0,.75,0,.75-.37s-.3-.39-.57-.39a1.26,1.26,0,0,0-.52.1l-.24-.37.66-.8c-2.06-.2-3.22-1.6-3.22-3.84,0-2.87,1.84-5.41,4.88-5.41,1.92,0,3.38,1,3.38,3.07Z"/><path id="_Caminho_composto_36" data-name="&lt;Caminho composto&gt;" class="cls-1" d="M336.18,72.18a3.65,3.65,0,0,1,3.71,3.93c0,2.79-1.82,5.37-4.78,5.37-2.43,0-3.81-1.44-3.81-3.89C331.31,74.72,333.15,72.18,336.18,72.18Zm-1.07,8.31c2.35,0,3.59-2.26,3.59-4.38,0-1.64-.88-2.93-2.52-2.93-2.48,0-3.69,2.28-3.69,4.41C332.49,79.31,333.33,80.49,335.11,80.49Z"/><path id="_Caminho_composto_37" data-name="&lt;Caminho composto&gt;" class="cls-1" d="M349.32,75c0-1.41-.82-1.84-2-1.84-.87,0-2.05.4-2.05,1.45,0,.86.63,1.21,1.44,1.43l1.19.32c1.11.3,2.14.81,2.14,2.4,0,1.83-1.85,2.7-3.46,2.7-2.14,0-3.64-.95-3.49-3.12h1.18c-.07,1.6.92,2.13,2.36,2.13,1.11,0,2.23-.51,2.23-1.7,0-.91-.71-1.23-1.58-1.47L346,77a2.31,2.31,0,0,1-2-2.24c0-1.72,1.65-2.57,3.23-2.57,1.75,0,3.28.86,3.22,2.84Z"/><path id="_Caminho_composto_38" data-name="&lt;Caminho composto&gt;" class="cls-1" d="M361.52,72.39h6.12l-.2,1H362.5l-.6,2.82h4.6l-.2,1h-4.61L361,80.28h5l-.22,1h-6.18Z"/><path id="_Caminho_composto_39" data-name="&lt;Caminho composto&gt;" class="cls-1" d="M376.19,75c0-1.41-.82-1.84-2-1.84-.87,0-2.05.4-2.05,1.45,0,.86.63,1.21,1.44,1.43l1.19.32c1.11.3,2.14.81,2.14,2.4,0,1.83-1.85,2.7-3.46,2.7-2.14,0-3.64-.95-3.49-3.12h1.18c-.07,1.6.92,2.13,2.36,2.13,1.11,0,2.23-.51,2.23-1.7,0-.91-.71-1.23-1.58-1.47L372.91,77a2.31,2.31,0,0,1-2-2.24c0-1.72,1.65-2.57,3.23-2.57,1.75,0,3.28.86,3.22,2.84Z"/><path id="_Caminho_composto_40" data-name="&lt;Caminho composto&gt;" class="cls-1" d="M382.32,72.39h3.49c1.7,0,2.64.83,2.64,2.45,0,1.11-.78,2.8-3.4,2.8h-2.64l-.77,3.63h-1.18Zm.31,4.25h2.67a1.75,1.75,0,0,0,2-1.8,1.31,1.31,0,0,0-1.45-1.46h-2.5Z"/><path id="_Caminho_composto_41" data-name="&lt;Caminho composto&gt;" class="cls-1" d="M393,72.39h6.12l-.2,1H394l-.6,2.82H398l-.2,1h-4.61l-.65,3.07h5l-.22,1h-6.18Z"/><path id="_Caminho_composto_42" data-name="&lt;Caminho composto&gt;" class="cls-1" d="M409.42,78.27a3.74,3.74,0,0,1-3.93,3.21c-2.43,0-3.81-1.44-3.81-3.89,0-2.87,1.84-5.41,4.88-5.41,1.92,0,3.38,1,3.38,3.07h-1.18a2,2,0,0,0-2.2-2.08c-2.48,0-3.69,2.28-3.69,4.41,0,1.72.85,2.9,2.62,2.9a2.71,2.71,0,0,0,2.75-2.21Z"/><path id="_Caminho_composto_43" data-name="&lt;Caminho composto&gt;" class="cls-1" d="M414.73,72.39h1.18l-1.87,8.88h-1.18Z"/><path id="_Caminho_composto_44" data-name="&lt;Caminho composto&gt;" class="cls-1" d="M423.25,72.39h1.29l1.6,8.88h-1.22l-.41-2.67h-3.74l-1.55,2.67h-1.32Zm-1.94,5.21h3.06l-.66-4.17h0Z"/><path id="_Caminho_composto_45" data-name="&lt;Caminho composto&gt;" class="cls-1" d="M431.43,72.39h1.18L431,80.28h4.69l-.21,1h-5.88Z"/><path id="_Caminho_composto_46" data-name="&lt;Caminho composto&gt;" class="cls-1" d="M440.93,72.39h1.18l-1.87,8.88h-1.18Z"/><path id="_Caminho_composto_47" data-name="&lt;Caminho composto&gt;" class="cls-1" d="M444.52,80.29l6.67-6.9H446.1l.25-1h6.48l-.21,1-6.72,6.88h5.67l-.21,1h-7.05Z"/><path id="_Caminho_composto_48" data-name="&lt;Caminho composto&gt;" class="cls-1" d="M459.63,72.39h1.29l1.6,8.88h-1.22l-.41-2.67h-3.74l-1.55,2.67h-1.32Zm-1.94,5.21h3.06l-.66-4.17h0Z"/><path id="_Caminho_composto_49" data-name="&lt;Caminho composto&gt;" class="cls-1" d="M467.82,72.39h3.11a3.06,3.06,0,0,1,3.36,3.4c0,3.35-2,5.48-4.94,5.48h-3.41Zm-.51,7.89h2.05c2.51,0,3.74-2.21,3.74-4.37a2.2,2.2,0,0,0-2.45-2.52h-1.89Z"/><path id="_Caminho_composto_50" data-name="&lt;Caminho composto&gt;" class="cls-1" d="M482.54,72.18a3.65,3.65,0,0,1,3.71,3.93c0,2.79-1.82,5.37-4.78,5.37-2.43,0-3.81-1.44-3.81-3.89C477.67,74.72,479.51,72.18,482.54,72.18Zm-1.07,8.31c2.35,0,3.59-2.26,3.59-4.38,0-1.64-.88-2.93-2.52-2.93-2.48,0-3.69,2.28-3.69,4.41C478.85,79.31,479.69,80.49,481.47,80.49Z"/><path id="_Caminho_composto_51" data-name="&lt;Caminho composto&gt;" class="cls-1" d="M495.68,75c0-1.41-.82-1.84-2-1.84-.87,0-2.05.4-2.05,1.45,0,.86.63,1.21,1.44,1.43l1.19.32c1.11.3,2.14.81,2.14,2.4,0,1.83-1.85,2.7-3.46,2.7-2.14,0-3.64-.95-3.49-3.12h1.18c-.07,1.6.92,2.13,2.36,2.13,1.11,0,2.23-.51,2.23-1.7,0-.91-.71-1.23-1.58-1.47L492.39,77a2.31,2.31,0,0,1-2-2.24c0-1.72,1.65-2.57,3.23-2.57,1.75,0,3.28.86,3.22,2.84Z"/></g></g></g></g></svg>